<?xml version="1.0" encoding="utf-8"?>
<!-- Generator: Adobe Illustrator 23.0.1, SVG Export Plug-In . SVG Version: 6.00 Build 0)  -->
<svg version="1.1" id="Logo_Monochrome_White" xmlns="http://www.w3.org/2000/svg" xmlns:xlink="http://www.w3.org/1999/xlink"
	 x="0px" y="0px" viewBox="0 0 34 24" style="enable-background:new 0 0 34 24;" xml:space="preserve">
<style type="text/css">
	.st0{fill:#FFFFFF;}
</style>
<g id="White">
	<polyline id="Bar_Left_4_" class="st0" points="10.9,17.54 10.9,14.72 13.78,11.78 13.78,17.54 	"/>
	<polyline id="Bar_Middle_4_" class="st0" points="15.09,17.54 15.09,13.64 16.48,14.67 18.21,13.18 18.21,17.54 	"/>
	<polyline id="Bar_Right_4_" class="st0" points="19.36,17.54 22.67,17.54 22.67,9.19 19.36,12.17 	"/>
	<path id="Arrow_4_" class="st0" d="M10.75,13.18l-0.67-0.8l3.73-3.65l2.68,2.59l4.72-4.38l-0.79-0.96l3.33-0.78L23.1,8.48
		l-0.94-0.69l-5.67,5.57l-2.68-2.34l-0.27-0.25c0,0-2.47,2.59-2.63,2.5"/>
	<path class="st0" d="M20.46,22.69l-0.62-2.32c4.81-1.33,8.94-4.2,10.79-7.48c0.95-1.7,1.24-3.4,0.83-4.94
		c-0.59-2.19-2.52-3.9-5.46-4.83c-3.12-0.99-6.93-0.95-10.73,0.1L14.64,0.9c4.23-1.17,8.51-1.19,12.05-0.07
		c3.73,1.18,6.23,3.48,7.04,6.49c0.58,2.16,0.22,4.5-1.05,6.77C30.5,17.96,25.93,21.18,20.46,22.69z"/>
	<path class="st0" d="M12.94,24c-1.99,0-3.9-0.27-5.64-0.82C3.57,22,1.08,19.69,0.27,16.69c-0.58-2.16-0.22-4.5,1.05-6.77
		c2.18-3.88,6.75-7.1,12.22-8.61l0.62,2.32c-4.81,1.33-8.94,4.2-10.79,7.48c-0.95,1.7-1.24,3.4-0.83,4.94
		c0.59,2.19,2.52,3.9,5.46,4.83c3.12,0.99,6.93,0.95,10.73-0.1l0.62,2.32C17.2,23.7,15.02,24,12.94,24z"/>
</g>
</svg>
